<svg width="139" height="139" viewBox="0 0 139 139" fill="none" xmlns="http://www.w3.org/2000/svg">
<rect x="0.5" y="0.5" width="138" height="138" rx="69" fill="white"/>
<rect x="0.5" y="0.5" width="138" height="138" rx="69" stroke="#D9D9D9"/>
<path d="M100.798 58.0769C100.237 58.0769 97.8202 58.096 96.948 58.1507L85.0364 58.5124L57.5678 20H44.617L59.9967 59.174L39.9324 59.5167L30.8023 46.6538H20.0577L24.3073 69.0669C24.3382 69.1954 24.3753 69.3215 24.4166 69.4453V69.481C24.3742 69.6039 24.3377 69.7294 24.3073 69.857L20 92.3462H30.6765L40.0478 79.2572L60.0008 79.7736L44.6149 119H57.6049L85.0282 80.5066L96.9397 80.8731C97.8243 80.9278 100.239 80.9469 100.787 80.9469C105.808 80.9469 109.915 80.152 112.996 78.5813C118.221 75.9255 119 71.7513 119 69.5C119 62.3463 112.196 58.0769 100.798 58.0769Z" fill="#0E69AB"/>
</svg>
